<?xml version="1.0" encoding="UTF-8" standalone="no"?><!DOCTYPE svg PUBLIC "-//W3C//DTD SVG 1.1//EN" "http://www.w3.org/Graphics/SVG/1.1/DTD/svg11.dtd"><svg width="100%" height="100%" viewBox="0 0 66 66" version="1.1" xmlns="http://www.w3.org/2000/svg" xmlns:xlink="http://www.w3.org/1999/xlink" xml:space="preserve" xmlns:serif="http://www.serif.com/" style="fill-rule:evenodd;clip-rule:evenodd;stroke-linejoin:round;stroke-miterlimit:2;"><g id="Light-S"><path d="M30.039,60.828l5.786,0c2.124,0 3.736,-1.246 4.212,-3.333l1.281,-5.42l1.136,-0.439l4.724,2.966c1.794,1.135 3.845,0.842 5.346,-0.659l3.992,-3.992c1.538,-1.501 1.795,-3.552 0.659,-5.347l-2.966,-4.724l0.403,-1.098l5.456,-1.245c2.051,-0.513 3.333,-2.124 3.333,-4.212l0,-5.676c0,-2.124 -1.282,-3.735 -3.333,-4.212l-5.383,-1.318l-0.439,-1.135l2.929,-4.724c1.172,-1.795 0.879,-3.772 -0.622,-5.347l-4.029,-3.992c-1.464,-1.501 -3.515,-1.757 -5.31,-0.659l-4.724,2.93l-1.172,-0.44l-1.281,-5.456c-0.476,-2.051 -2.088,-3.296 -4.212,-3.296l-5.786,0c-2.124,0 -3.699,1.245 -4.175,3.296l-1.281,5.456l-1.209,0.44l-4.724,-2.93c-1.795,-1.098 -3.845,-0.842 -5.31,0.659l-4.028,3.992c-1.502,1.575 -1.758,3.552 -0.623,5.347l2.966,4.724l-0.439,1.135l-5.383,1.319c-2.088,0.476 -3.333,2.087 -3.333,4.211l0,5.676c0,2.088 1.282,3.699 3.333,4.212l5.419,1.245l0.403,1.098l-2.929,4.724c-1.172,1.795 -0.879,3.846 0.622,5.347l4.028,3.992c1.502,1.501 3.516,1.794 5.311,0.659l4.76,-2.966l1.136,0.439l1.281,5.42c0.476,2.087 2.051,3.333 4.175,3.333Zm0.439,-3.955c-0.622,-0 -0.915,-0.257 -1.025,-0.806l-1.684,-7.031c-1.648,-0.44 -3.223,-1.099 -4.432,-1.795l-6.152,3.809c-0.476,0.293 -0.915,0.256 -1.355,-0.183l-3.406,-3.443c-0.439,-0.403 -0.439,-0.805 -0.146,-1.281l3.808,-6.153c-0.622,-1.172 -1.318,-2.746 -1.757,-4.394l-7.068,-1.685c-0.55,-0.11 -0.806,-0.403 -0.806,-0.989l-0,-4.907c-0,-0.622 0.256,-0.915 0.806,-1.025l7.031,-1.648c0.439,-1.758 1.245,-3.369 1.758,-4.468l-3.809,-6.116c-0.329,-0.512 -0.293,-0.915 0.11,-1.355l3.479,-3.406c0.44,-0.402 0.806,-0.476 1.355,-0.146l6.116,3.735c1.208,-0.659 2.856,-1.318 4.504,-1.794l1.648,-7.031c0.11,-0.55 0.403,-0.806 1.025,-0.806l4.944,-0c0.623,-0 0.916,0.22 1.026,0.806l1.684,7.068c1.685,0.439 3.186,1.135 4.431,1.794l6.153,-3.772c0.512,-0.33 0.915,-0.256 1.355,0.146l3.442,3.406c0.403,0.44 0.44,0.843 0.11,1.355l-3.772,6.116c0.513,1.099 1.282,2.673 1.721,4.468l7.068,1.648c0.549,0.11 0.806,0.403 0.806,1.025l-0,4.907c-0,0.586 -0.257,0.879 -0.806,0.989l-7.068,1.685c-0.439,1.648 -1.135,3.222 -1.794,4.394l3.808,6.153c0.33,0.476 0.293,0.878 -0.109,1.281l-3.443,3.443c-0.439,0.439 -0.879,0.476 -1.318,0.183l-6.189,-3.809c-1.172,0.696 -2.71,1.355 -4.395,1.795l-1.684,7.031c-0.11,0.586 -0.403,0.806 -1.026,0.806l-4.944,-0Zm2.491,-15.491c6.006,-0 10.913,-4.944 10.913,-10.987c0,-5.969 -4.907,-10.913 -10.913,-10.913c-6.006,-0 -10.987,4.944 -10.987,10.913c0,6.006 4.944,10.987 10.987,10.987Zm-0,-3.955c-3.845,-0 -7.032,-3.15 -7.032,-7.032c-0,-3.808 3.187,-6.957 7.032,-6.957c3.772,-0 6.958,3.149 6.958,6.957c-0,3.846 -3.186,7.032 -6.958,7.032Z" style="fill-rule:nonzero;"/></g></svg>