<?xml version="1.0" encoding="UTF-8" standalone="no"?><!DOCTYPE svg PUBLIC "-//W3C//DTD SVG 1.1//EN" "http://www.w3.org/Graphics/SVG/1.1/DTD/svg11.dtd"><svg width="100%" height="100%" viewBox="0 0 53 53" version="1.1" xmlns="http://www.w3.org/2000/svg" xmlns:xlink="http://www.w3.org/1999/xlink" xml:space="preserve" xmlns:serif="http://www.serif.com/" style="fill-rule:evenodd;clip-rule:evenodd;stroke-linejoin:round;stroke-miterlimit:2;"><g id="Light-S"><path d="M8.716,52.368l34.936,0c5.823,0 8.716,-2.893 8.716,-8.606l0,-35.119c0,-5.713 -2.893,-8.643 -8.716,-8.643l-34.936,0c-5.786,0 -8.716,2.893 -8.716,8.643l0,35.119c0,5.713 2.93,8.606 8.716,8.606Zm0.073,-4.065c-3.04,0 -4.724,-1.611 -4.724,-4.76l-0,-34.681c-0,-3.149 1.684,-4.797 4.724,-4.797l34.79,-0c3.003,-0 4.724,1.648 4.724,4.797l0,34.681c0,3.149 -1.721,4.76 -4.724,4.76l-34.79,0Zm27.466,-30.469l-20.105,0c-1.318,0 -1.868,1.575 -1.172,2.747l9.741,16.333c0.696,1.172 2.271,1.209 3.003,0l9.668,-16.333c0.769,-1.282 0.183,-2.747 -1.135,-2.747Z" style="fill-rule:nonzero;"/></g></svg>