<?xml version="1.0" encoding="UTF-8" standalone="no"?><!DOCTYPE svg PUBLIC "-//W3C//DTD SVG 1.1//EN" "http://www.w3.org/Graphics/SVG/1.1/DTD/svg11.dtd"><svg width="100%" height="100%" viewBox="0 0 68 68" version="1.1" xmlns="http://www.w3.org/2000/svg" xmlns:xlink="http://www.w3.org/1999/xlink" xml:space="preserve" xmlns:serif="http://www.serif.com/" style="fill-rule:evenodd;clip-rule:evenodd;stroke-linejoin:round;stroke-miterlimit:2;"><g id="Light-S"><path d="M0,45.315c0,7.032 5.493,12.525 13.11,12.525l40.87,0c7.617,0 13.11,-5.493 13.11,-12.525c0,-2.087 -0.623,-3.991 -1.355,-5.749l-9.961,-23.401c-1.831,-4.395 -5.53,-6.665 -10.437,-6.665l-23.584,0c-4.907,0 -8.569,2.27 -10.437,6.665l-9.961,23.401c-0.732,1.758 -1.355,3.662 -1.355,5.749Zm8.459,-11.608l6.812,-16.48c1.099,-2.747 3.442,-4.138 6.628,-4.138l23.291,0c3.186,0 5.53,1.391 6.629,4.138l6.811,16.48c-1.391,-0.586 -2.966,-0.916 -4.65,-0.916l-40.87,0c-1.684,0 -3.259,0.33 -4.651,0.916Zm-4.394,11.608c-0,-4.797 3.699,-8.459 9.045,-8.459l40.87,0c5.383,0 9.045,3.662 9.045,8.459c-0,5.274 -3.662,8.46 -9.045,8.46l-40.87,0c-5.346,0 -9.045,-3.662 -9.045,-8.46Zm21.35,2.93c-0,0.842 0.696,1.538 1.538,1.538c0.842,0 1.502,-0.696 1.502,-1.538l-0,-5.896c-0,-0.842 -0.66,-1.501 -1.502,-1.501c-0.842,0 -1.538,0.659 -1.538,1.501l-0,5.896Zm6.592,0c-0,0.842 0.696,1.538 1.538,1.538c0.842,0 1.501,-0.696 1.501,-1.538l-0,-5.896c-0,-0.842 -0.659,-1.501 -1.501,-1.501c-0.842,0 -1.538,0.659 -1.538,1.501l-0,5.896Zm6.592,0c-0,0.842 0.695,1.538 1.538,1.538c0.842,0 1.501,-0.696 1.501,-1.538l-0,-5.896c-0,-0.842 -0.659,-1.501 -1.501,-1.501c-0.843,0 -1.538,0.659 -1.538,1.501l-0,5.896Zm6.591,0c-0,0.842 0.696,1.538 1.539,1.538c0.842,0 1.501,-0.696 1.501,-1.538l-0,-5.896c-0,-0.842 -0.659,-1.501 -1.501,-1.501c-0.843,0 -1.539,0.659 -1.539,1.501l-0,5.896Zm6.592,0c-0,0.842 0.696,1.538 1.538,1.538c0.843,0 1.502,-0.696 1.502,-1.538l-0,-5.896c-0,-0.842 -0.659,-1.501 -1.502,-1.501c-0.842,0 -1.538,0.659 -1.538,1.501l-0,5.896Z" style="fill-rule:nonzero;"/></g></svg>