<?xml version="1.0" encoding="UTF-8" standalone="no"?><!DOCTYPE svg PUBLIC "-//W3C//DTD SVG 1.1//EN" "http://www.w3.org/Graphics/SVG/1.1/DTD/svg11.dtd"><svg width="100%" height="100%" viewBox="0 0 68 53" version="1.1" xmlns="http://www.w3.org/2000/svg" xmlns:xlink="http://www.w3.org/1999/xlink" xml:space="preserve" xmlns:serif="http://www.serif.com/" style="fill-rule:evenodd;clip-rule:evenodd;stroke-linejoin:round;stroke-miterlimit:2;"><g id="Light-S"><path d="M8.716,52.368l49.988,0c5.786,0 8.715,-2.893 8.715,-8.606l0,-35.119c0,-5.713 -2.929,-8.643 -8.715,-8.643l-49.988,0c-5.786,0 -8.716,2.893 -8.716,8.643l0,35.119c0,5.713 2.93,8.606 8.716,8.606Zm0.073,-4.065c-3.04,0 -4.724,-1.611 -4.724,-4.76l-0,-34.681c-0,-3.149 1.684,-4.797 4.724,-4.797l49.841,-0c3.003,-0 4.725,1.648 4.725,4.797l-0,34.681c-0,3.149 -1.722,4.76 -4.725,4.76l-49.841,0Zm4.395,-33.032c1.464,-0 2.636,-1.172 2.636,-2.637c0,-1.465 -1.172,-2.636 -2.636,-2.636c-1.465,-0 -2.674,1.171 -2.674,2.636c0,1.429 1.209,2.637 2.674,2.637Zm8.972,-1.062l33.435,-0c0.879,-0 1.575,-0.696 1.575,-1.575c-0,-0.915 -0.696,-1.611 -1.575,-1.611l-33.435,-0c-0.916,-0 -1.612,0.696 -1.612,1.611c0,0.879 0.696,1.575 1.612,1.575Zm-8.972,9.961c1.464,-0 2.636,-1.172 2.636,-2.637c0,-1.465 -1.172,-2.637 -2.636,-2.637c-1.465,0 -2.674,1.209 -2.674,2.637c0,1.428 1.209,2.637 2.674,2.637Zm8.972,-1.025l18.786,-0c0.879,-0 1.575,-0.733 1.575,-1.612c0,-0.879 -0.696,-1.611 -1.575,-1.611l-18.786,-0c-0.916,-0 -1.612,0.732 -1.612,1.611c0,0.879 0.696,1.612 1.612,1.612Zm-8.972,9.924c1.464,-0 2.636,-1.209 2.636,-2.673c0,-1.465 -1.172,-2.601 -2.636,-2.601c-1.465,0 -2.674,1.172 -2.674,2.601c0,1.464 1.209,2.673 2.674,2.673Zm8.972,-1.062l33.435,-0c0.879,-0 1.575,-0.696 1.575,-1.611c-0,-0.879 -0.696,-1.575 -1.575,-1.575l-33.435,-0c-0.916,-0 -1.612,0.696 -1.612,1.575c0,0.915 0.696,1.611 1.612,1.611Zm-8.972,10.29c1.464,0 2.636,-1.208 2.636,-2.636c0,-1.465 -1.172,-2.674 -2.636,-2.674c-1.465,0 -2.674,1.209 -2.674,2.674c0,1.428 1.209,2.636 2.674,2.636Zm8.972,-1.062l18.786,0c0.879,0 1.575,-0.695 1.575,-1.574c0,-0.916 -0.696,-1.612 -1.575,-1.612l-18.786,0c-0.916,0 -1.612,0.696 -1.612,1.612c0,0.879 0.696,1.574 1.612,1.574Z" style="fill-rule:nonzero;"/></g></svg>