<?xml version="1.0" encoding="UTF-8" standalone="no"?><!DOCTYPE svg PUBLIC "-//W3C//DTD SVG 1.1//EN" "http://www.w3.org/Graphics/SVG/1.1/DTD/svg11.dtd"><svg width="100%" height="100%" viewBox="0 0 64 64" version="1.1" xmlns="http://www.w3.org/2000/svg" xmlns:xlink="http://www.w3.org/1999/xlink" xml:space="preserve" xmlns:serif="http://www.serif.com/" style="fill-rule:evenodd;clip-rule:evenodd;stroke-linejoin:round;stroke-miterlimit:2;"><g id="Light-S"><path d="M31.504,58.008c15.893,0 29.04,-13.111 29.04,-29.004c0,-15.894 -13.183,-29.004 -29.04,-29.004c-15.894,0 -29.004,13.11 -29.004,29.004c0,15.893 13.147,29.004 29.004,29.004Zm0,-4.285c-13.696,0 -24.683,-11.023 -24.683,-24.719c0,-13.696 10.95,-24.719 24.683,-24.719c13.696,0 24.719,11.023 24.756,24.719c0,13.696 -11.023,24.719 -24.756,24.719Zm-12.671,-23.364c0,7.104 5.64,12.744 12.671,12.744c7.031,0 12.634,-5.64 12.634,-12.671c0,-0.952 -0.805,-1.758 -1.758,-1.758c-0.952,0 -1.757,0.806 -1.757,1.758c0,5.09 -4.065,9.155 -9.119,9.155c-5.09,0 -9.155,-4.065 -9.155,-9.155c0,-5.09 4.065,-9.119 9.155,-9.119c0.549,0 1.099,0.037 1.501,0.11l-3.259,3.223c-0.33,0.33 -0.476,0.732 -0.476,1.245c0,0.879 0.696,1.611 1.611,1.611c0.44,0 0.879,-0.219 1.136,-0.476l5.676,-5.749c0.659,-0.623 0.622,-1.795 0,-2.417l-5.603,-5.75c-0.293,-0.293 -0.733,-0.512 -1.209,-0.512c-0.915,0 -1.648,0.732 -1.648,1.648c0,0.439 0.183,0.878 0.476,1.172l2.491,2.563c-0.33,-0.037 -0.769,-0.11 -1.172,-0.11c-6.482,0 -12.195,5.493 -12.195,12.488Z" style="fill-rule:nonzero;"/></g></svg>