<?xml version="1.0" encoding="UTF-8" standalone="no"?><!DOCTYPE svg PUBLIC "-//W3C//DTD SVG 1.1//EN" "http://www.w3.org/Graphics/SVG/1.1/DTD/svg11.dtd"><svg width="100%" height="100%" viewBox="0 0 68 68" version="1.1" xmlns="http://www.w3.org/2000/svg" xmlns:xlink="http://www.w3.org/1999/xlink" xml:space="preserve" xmlns:serif="http://www.serif.com/" style="fill-rule:evenodd;clip-rule:evenodd;stroke-linejoin:round;stroke-miterlimit:2;"><g id="Light-S"><path d="M0,53.762c0,5.713 2.93,8.606 8.716,8.606l49.988,0c5.786,0 8.715,-2.893 8.715,-8.606l0,-35.119c0,-5.713 -2.929,-8.643 -8.715,-8.643l-49.988,0c-5.786,0 -8.716,2.893 -8.716,8.643l0,35.119Zm8.752,-34.314c-1.318,0 -2.417,-1.135 -2.417,-2.417c0,-1.281 1.099,-2.417 2.417,-2.417c1.319,0 2.417,1.136 2.417,2.417c0,1.282 -1.098,2.417 -2.417,2.417Zm7.874,0c-1.318,0 -2.417,-1.135 -2.417,-2.417c0,-1.281 1.099,-2.417 2.417,-2.417c1.355,0 2.417,1.136 2.417,2.417c0,1.282 -1.062,2.417 -2.417,2.417Zm7.91,0c-1.355,0 -2.453,-1.135 -2.453,-2.417c0,-1.281 1.098,-2.417 2.453,-2.417c1.319,0 2.417,1.136 2.417,2.417c0,1.282 -1.098,2.417 -2.417,2.417Zm-20.471,34.095l0,-29.48l59.29,0l0,29.48c0,3.149 -1.722,4.76 -4.725,4.76l-49.841,0c-3.04,0 -4.724,-1.611 -4.724,-4.76Z" style="fill-rule:nonzero;"/></g></svg>