<?xml version="1.0" encoding="UTF-8" standalone="no"?><!DOCTYPE svg PUBLIC "-//W3C//DTD SVG 1.1//EN" "http://www.w3.org/Graphics/SVG/1.1/DTD/svg11.dtd"><svg width="100%" height="100%" viewBox="0 0 63 59" version="1.1" xmlns="http://www.w3.org/2000/svg" xmlns:xlink="http://www.w3.org/1999/xlink" xml:space="preserve" xmlns:serif="http://www.serif.com/" style="fill-rule:evenodd;clip-rule:evenodd;stroke-linejoin:round;stroke-miterlimit:2;"><g id="Light-S"><path d="M17.029,58.667c1.282,-0 2.16,-0.659 3.625,-2.014l10.034,-8.826l19.41,0c8.13,0 12.634,-4.614 12.634,-12.634l-0,-22.559c-0,-8.02 -4.504,-12.634 -12.634,-12.634l-37.464,0c-8.13,0 -12.634,4.578 -12.634,12.634l0,22.559c0,8.057 4.504,12.634 12.634,12.634l1.612,0l-0,7.617c-0,1.978 1.025,3.223 2.783,3.223Zm1.025,-4.614l0,-8.387c0,-1.354 -0.512,-1.904 -1.904,-1.904l-3.479,0c-5.75,0 -8.606,-3.039 -8.606,-8.606l-0,-22.485c-0,-5.567 2.856,-8.606 8.606,-8.606l37.39,-0c5.713,-0 8.606,3.039 8.606,8.606l0,22.485c0,5.567 -2.893,8.606 -8.606,8.606l-19.482,0c-1.429,0 -2.198,0.22 -3.186,1.245l-9.339,9.046Zm-0.366,-26.221c2.161,-0 3.918,-1.758 3.918,-3.918c0,-2.161 -1.757,-3.919 -3.918,-3.919c-2.197,0 -3.955,1.758 -3.955,3.919c-0,2.16 1.758,3.918 3.955,3.918Zm13.696,-0c2.161,-0 3.919,-1.758 3.919,-3.918c-0,-2.161 -1.758,-3.919 -3.919,-3.919c-2.197,0 -3.955,1.758 -3.955,3.919c0,2.16 1.758,3.918 3.955,3.918Zm13.697,-0c2.16,-0 3.918,-1.758 3.918,-3.918c0,-2.161 -1.758,-3.919 -3.918,-3.919c-2.198,0 -3.956,1.758 -3.956,3.919c0,2.16 1.758,3.918 3.956,3.918Z" style="fill-rule:nonzero;"/></g></svg>