<?xml version="1.0" encoding="UTF-8" standalone="no"?><!DOCTYPE svg PUBLIC "-//W3C//DTD SVG 1.1//EN" "http://www.w3.org/Graphics/SVG/1.1/DTD/svg11.dtd"><svg width="100%" height="100%" viewBox="0 0 48 65" version="1.1" xmlns="http://www.w3.org/2000/svg" xmlns:xlink="http://www.w3.org/1999/xlink" xml:space="preserve" xmlns:serif="http://www.serif.com/" style="fill-rule:evenodd;clip-rule:evenodd;stroke-linejoin:round;stroke-miterlimit:2;"><g id="Light-S"><path d="M23.547,57.495c0.476,0 1.209,-0.183 1.905,-0.586c16.186,-9.228 21.643,-12.89 21.643,-23.071l-0,-21.863c-0,-3.039 -1.209,-4.028 -3.736,-5.09c-3.735,-1.502 -13.733,-5.164 -17.468,-6.446c-0.769,-0.256 -1.538,-0.439 -2.344,-0.439c-0.805,-0 -1.574,0.256 -2.343,0.439c-3.736,1.172 -13.733,4.944 -17.469,6.446c-2.527,1.025 -3.735,2.051 -3.735,5.09l-0,21.863c-0,10.181 5.493,13.769 21.643,23.071c0.696,0.403 1.428,0.586 1.904,0.586Zm0,-4.541c-0.476,0 -0.952,-0.183 -1.721,-0.659c-13.293,-8.167 -17.798,-10.547 -17.798,-19.336l0,-20.215c0,-1.208 0.22,-1.684 1.136,-2.051c4.101,-1.611 13.037,-4.724 17.138,-6.298c0.476,-0.22 0.916,-0.33 1.245,-0.33c0.33,-0 0.769,0.11 1.245,0.33c4.102,1.574 12.964,4.834 17.139,6.298c0.916,0.367 1.135,0.843 1.135,2.051l0,20.215c0,8.789 -4.541,11.133 -17.797,19.336c-0.77,0.476 -1.246,0.659 -1.722,0.659Zm-3.112,-11.975c0.842,0 1.538,-0.403 2.014,-1.172l13.549,-21.24c0.293,-0.476 0.586,-1.025 0.586,-1.575c0,-1.135 -0.988,-1.904 -2.05,-1.904c-0.66,-0 -1.282,0.403 -1.758,1.172l-12.451,19.812l-6.153,-7.764c-0.586,-0.769 -1.172,-0.989 -1.867,-0.989c-1.099,0 -1.941,0.879 -1.941,2.014c-0,0.55 0.219,1.099 0.586,1.575l7.324,8.899c0.659,0.806 1.318,1.172 2.161,1.172Z" style="fill-rule:nonzero;"/></g></svg>