<?xml version="1.0" encoding="UTF-8" standalone="no"?><!DOCTYPE svg PUBLIC "-//W3C//DTD SVG 1.1//EN" "http://www.w3.org/Graphics/SVG/1.1/DTD/svg11.dtd"><svg width="100%" height="100%" viewBox="0 0 76 76" version="1.1" xmlns="http://www.w3.org/2000/svg" xmlns:xlink="http://www.w3.org/1999/xlink" xml:space="preserve" xmlns:serif="http://www.serif.com/" style="fill-rule:evenodd;clip-rule:evenodd;stroke-linejoin:round;stroke-miterlimit:2;"><g id="Light-S"><path d="M11.016,63.995c4.651,4.651 10.107,4.688 14.685,0.11c3.625,-3.626 7.214,-12.048 10.034,-15.308l6.372,6.409c2.051,2.087 4.614,2.087 6.629,0.037l3.625,-3.626c1.648,-1.684 1.941,-3.589 0.879,-5.383l12.231,-12.232c3.077,-3.076 3.04,-6.811 -0.109,-9.961l-22.413,-22.412c-2.893,-2.929 -7.8,-1.831 -8.825,2.674c-2.271,9.997 -2.783,12.561 -5.86,17.175c-1.648,-0.732 -3.369,-0.33 -4.907,1.172l-3.589,3.625c-2.051,2.014 -2.051,4.541 0.037,6.629l6.372,6.372c-3.223,2.783 -11.646,6.408 -15.271,10.034c-4.578,4.578 -4.541,10.034 0.11,14.685Zm36.767,-32.849c1.429,1.428 9.229,-2.82 12.415,-6.372l2.087,2.124c1.429,1.428 1.429,3.186 0.074,4.541l-11.792,11.829l-19.153,-19.153c3.442,-5.091 4.101,-8.643 6.482,-17.725c0.403,-1.685 1.794,-2.051 2.82,-1.062l13.439,13.44c-0.695,4.724 -3.222,8.203 -6.298,11.279c-0.367,0.366 -0.33,0.843 -0.074,1.099Zm-24.536,-2.6l2.454,-2.417c0.732,-0.733 1.575,-0.769 2.307,0l20.874,20.874c0.732,0.732 0.696,1.538 -0.037,2.307l-2.38,2.417c-0.769,0.806 -1.611,0.806 -2.344,0.037l-6.958,-6.995c-1.025,-0.989 -2.27,-0.916 -3.405,0.183c-2.381,2.344 -6.373,11.975 -10.804,16.406c-2.856,2.893 -6.299,2.857 -9.265,-0.073c-2.893,-2.93 -2.929,-6.409 -0.073,-9.228c4.468,-4.432 14.099,-8.423 16.443,-10.804c1.098,-1.135 1.172,-2.417 0.183,-3.405l-6.995,-6.958c-0.769,-0.769 -0.769,-1.612 0,-2.344Zm-5.09,31.787c1.904,0 3.442,-1.538 3.442,-3.479c0,-1.904 -1.538,-3.442 -3.442,-3.442c-1.941,0 -3.479,1.538 -3.479,3.442c0,1.941 1.538,3.479 3.479,3.479Z" style="fill-rule:nonzero;"/></g></svg>