<?xml version="1.0" encoding="UTF-8" standalone="no"?><!DOCTYPE svg PUBLIC "-//W3C//DTD SVG 1.1//EN" "http://www.w3.org/Graphics/SVG/1.1/DTD/svg11.dtd"><svg width="100%" height="100%" viewBox="0 0 78 78" version="1.1" xmlns="http://www.w3.org/2000/svg" xmlns:xlink="http://www.w3.org/1999/xlink" xml:space="preserve" xmlns:serif="http://www.serif.com/" style="fill-rule:evenodd;clip-rule:evenodd;stroke-linejoin:round;stroke-miterlimit:2;"><g id="Light-S"><path d="M15.782,62.145l0,7.618c0,2.124 1.355,3.515 3.516,3.515l0.769,0c2.124,0 3.516,-1.391 3.516,-3.515l-0,-7.618c-0,-1.648 -0.843,-2.856 -2.234,-3.296l-0,-1.867c4.541,2.124 10.547,3.442 17.651,3.442c16.773,0 27.319,-7.324 27.319,-15.344l0,-13.513l8.863,-4.065c1.757,-0.769 2.636,-2.307 2.636,-3.919c0,-1.574 -0.879,-3.149 -2.636,-3.955l-28.345,-12.964c-3.04,-1.391 -5.457,-1.977 -7.837,-1.941c-2.417,-0.036 -4.797,0.55 -7.837,1.941l-28.345,12.964c-1.757,0.806 -2.636,2.381 -2.636,3.955c-0,1.612 0.879,3.15 2.636,3.919l8.826,4.065l0,13.513c0,3.735 2.271,7.287 6.372,10.034l0,3.735c-1.391,0.44 -2.234,1.612 -2.234,3.296Zm23.218,-23.693c-1.941,-0 -3.809,-0.477 -6.299,-1.648l-8.716,-3.956l12.488,-6.481c0.806,0.219 1.685,0.329 2.637,0.329c3.113,0 5.933,-1.391 5.933,-3.113c-0,-1.721 -2.82,-3.076 -5.933,-3.076c-3.149,0 -6.006,1.355 -6.006,3.076c0,0.33 0.11,0.659 0.293,0.989l-13,6.629l-14.539,-6.629c-0.513,-0.22 -0.769,-0.586 -0.769,-0.989c-0,-0.403 0.256,-0.769 0.769,-0.988l26.843,-12.232c2.49,-1.172 4.358,-1.648 6.299,-1.648c1.941,0 3.809,0.476 6.299,1.648l26.843,12.232c0.513,0.219 0.769,0.585 0.769,0.988c0,0.403 -0.256,0.769 -0.769,0.989l-26.843,12.232c-2.49,1.171 -4.358,1.648 -6.299,1.648Zm-23.254,6.628l-0,-11.646l2.27,1.026l0,15.6c-1.501,-1.574 -2.27,-3.259 -2.27,-4.98Zm23.254,-2.637c2.38,0.037 4.797,-0.586 7.837,-1.977l15.417,-7.032l0,11.646c0,5.713 -8.935,11.536 -23.254,11.536c-7.544,-0 -13.623,-1.612 -17.651,-3.992l-0,-16.626l9.814,4.468c3.04,1.391 5.42,2.014 7.837,1.977Z" style="fill-rule:nonzero;"/></g></svg>