<?xml version="1.0" encoding="UTF-8" standalone="no"?><!DOCTYPE svg PUBLIC "-//W3C//DTD SVG 1.1//EN" "http://www.w3.org/Graphics/SVG/1.1/DTD/svg11.dtd"><svg width="100%" height="100%" viewBox="0 0 60 72" version="1.1" xmlns="http://www.w3.org/2000/svg" xmlns:xlink="http://www.w3.org/1999/xlink" xml:space="preserve" xmlns:serif="http://www.serif.com/" style="fill-rule:evenodd;clip-rule:evenodd;stroke-linejoin:round;stroke-miterlimit:2;"><g id="Light-S"><path d="M3.333,55.668l3.295,0c0.733,0 1.062,-0.146 1.648,-0.586l1.978,-1.501l0.11,0.073c0.989,1.025 2.307,1.172 3.662,0.623l9.631,-3.846c0.659,-0.293 0.989,-0.512 1.392,-0.915l27.539,-27.21c2.563,-2.563 2.527,-5.566 -0.073,-8.203l-6.006,-6.079c-2.6,-2.637 -5.64,-2.71 -8.203,-0.146l-27.576,27.173c-0.403,0.402 -0.623,0.695 -0.916,1.391l-3.955,9.595c-0.586,1.355 -0.439,2.637 0.586,3.662l0,0.037l-3.882,4.028c-0.769,0.842 -0.402,1.904 0.77,1.904Zm37.536,-44.934c0.916,-0.879 2.014,-0.915 2.857,-0.073l6.115,6.225c0.879,0.879 0.806,1.941 -0.11,2.82l-2.16,2.161l-8.899,-8.972l2.197,-2.161Zm-26.184,25.891l21.57,-21.35l8.899,8.972l-21.607,21.35l-8.862,-8.972Zm-1.062,13.697c-0.586,0.219 -0.989,0.219 -1.465,-0.293l-2.087,-2.088c-0.513,-0.476 -0.513,-0.915 -0.293,-1.465l2.966,-6.994l7.947,8.02l-7.068,2.82Zm-11.572,15.344l55.371,-0c1.099,-0 2.014,-0.916 2.014,-2.014c0,-1.136 -0.915,-2.051 -2.014,-2.051l-55.371,-0c-1.135,-0 -2.051,0.915 -2.051,2.051c0,1.098 0.916,2.014 2.051,2.014Z" style="fill-rule:nonzero;"/></g></svg>