<?xml version="1.0" encoding="UTF-8" standalone="no"?><!DOCTYPE svg PUBLIC "-//W3C//DTD SVG 1.1//EN" "http://www.w3.org/Graphics/SVG/1.1/DTD/svg11.dtd"><svg width="100%" height="100%" viewBox="0 0 72 72" version="1.1" xmlns="http://www.w3.org/2000/svg" xmlns:xlink="http://www.w3.org/1999/xlink" xml:space="preserve" xmlns:serif="http://www.serif.com/" style="fill-rule:evenodd;clip-rule:evenodd;stroke-linejoin:round;stroke-miterlimit:2;"><path d="M41.724,22.568c-1.587,1.587 -1.587,4.159 -0,5.746c1.587,1.587 4.16,1.587 5.747,-0c1.587,-1.587 1.587,-4.16 -0,-5.746c-1.587,-1.587 -4.16,-1.587 -5.747,-0m-19.157,19.157c1.588,-1.588 4.16,-1.588 5.747,-0c1.587,1.586 1.587,4.158 -0,5.746c-1.587,1.587 -4.159,1.587 -5.747,-0c-1.587,-1.588 -1.587,-4.16 -0,-5.746m12.452,-25.862c4.622,-4.622 11.747,-5.189 17.002,-1.736c1.098,0.807 2.15,1.731 3.142,2.723c10.589,10.589 10.54,27.714 -0.03,38.284c-10.569,10.569 -27.663,10.649 -38.253,0.059c-0.231,-0.231 -0.438,-0.482 -0.659,-0.717c5.311,4.963 13.618,4.88 18.797,-0.3c5.291,-5.29 5.291,-13.866 -0,-19.157c-5.289,-5.29 -5.289,-13.866 -0,-19.156l0.001,-0Zm-22.03,-2.874c-6.342,6.342 -9.496,14.686 -9.489,23.019c0.004,8.331 3.197,16.663 9.549,23.017c12.707,12.708 33.234,12.626 45.916,-0.059c12.684,-12.685 12.734,-33.238 0.03,-45.946c-12.707,-12.707 -33.324,-12.716 -46.006,-0.031Z" style="fill:#333;fill-rule:nonzero;"/></svg>