<?xml version="1.0" encoding="UTF-8" standalone="no"?><!DOCTYPE svg PUBLIC "-//W3C//DTD SVG 1.1//EN" "http://www.w3.org/Graphics/SVG/1.1/DTD/svg11.dtd"><svg width="100%" height="100%" viewBox="0 0 57 57" version="1.1" xmlns="http://www.w3.org/2000/svg" xmlns:xlink="http://www.w3.org/1999/xlink" xml:space="preserve" xmlns:serif="http://www.serif.com/" style="fill-rule:evenodd;clip-rule:evenodd;stroke-linejoin:round;stroke-miterlimit:2;"><g id="Light-S"><path d="M53.577,6.338l1.977,-2.014c0.952,-0.989 0.952,-2.234 0.037,-3.15l-0.549,-0.586c-0.879,-0.842 -2.161,-0.769 -3.077,0.147l-1.977,1.978l3.589,3.625Zm-34.021,31.055l5.273,-2.307l26.733,-26.734l-3.625,-3.589l-26.733,26.734l-2.454,5.09c-0.22,0.439 0.33,1.025 0.806,0.806Zm-10.84,18.823l33.545,-0c5.09,-0 8.02,-2.93 8.02,-8.643l-0,-30.651l-4.065,4.101l-0,26.331c-0,3.149 -1.721,4.797 -4.029,4.797l-33.398,0c-3.04,0 -4.724,-1.648 -4.724,-4.797l-0,-32.593c-0,-3.15 1.684,-4.761 4.724,-4.761l26.624,0l4.101,-4.065l-30.798,0c-5.786,0 -8.716,2.893 -8.716,8.606l-0,33.032c-0,5.75 2.93,8.643 8.716,8.643Z" style="fill-rule:nonzero;"/></g></svg>