<?xml version="1.0" encoding="UTF-8" standalone="no"?><!DOCTYPE svg PUBLIC "-//W3C//DTD SVG 1.1//EN" "http://www.w3.org/Graphics/SVG/1.1/DTD/svg11.dtd"><svg width="100%" height="100%" viewBox="0 0 72 72" version="1.1" xmlns="http://www.w3.org/2000/svg" xmlns:xlink="http://www.w3.org/1999/xlink" xml:space="preserve" xmlns:serif="http://www.serif.com/" style="fill-rule:evenodd;clip-rule:evenodd;stroke-linejoin:round;stroke-miterlimit:2;"><path d="M70,55.833l-3.967,-3.966l-7.366,7.366l0,-11.9c0,-7.934 -6.233,-14.166 -14.167,-14.166l-14.167,-0c1.7,-2.268 2.834,-5.384 2.834,-8.5l0,-11.9l7.366,7.366l3.967,-3.966l-14.167,-14.167l-14.166,14.167l3.966,3.966l7.367,-7.366l0,11.9c0,4.816 -3.683,8.5 -8.5,8.5l-17,-0l0,5.666l42.5,0c4.817,0 8.5,3.684 8.5,8.5l0,11.9l-7.367,-7.366l-3.966,3.966l14.166,14.167l14.167,-14.167Z" style="fill:#231f20;fill-rule:nonzero;"/></svg>