<?xml version="1.0" encoding="UTF-8" standalone="no"?><!DOCTYPE svg PUBLIC "-//W3C//DTD SVG 1.1//EN" "http://www.w3.org/Graphics/SVG/1.1/DTD/svg11.dtd"><svg width="100%" height="100%" viewBox="0 0 65 82" version="1.1" xmlns="http://www.w3.org/2000/svg" xmlns:xlink="http://www.w3.org/1999/xlink" xml:space="preserve" xmlns:serif="http://www.serif.com/" style="fill-rule:evenodd;clip-rule:evenodd;stroke-linejoin:round;stroke-miterlimit:2;"><g id="Light-S"><path d="M17.065,24.335c0,1.538 0.586,2.673 2.344,3.478c3.113,1.465 7.874,2.344 12.708,2.344c4.834,0 9.558,-0.879 12.671,-2.344c1.757,-0.805 2.343,-1.94 2.343,-3.478c0,-3.809 -2.124,-7.142 -5.749,-9.192l-0.183,-0.879c-0.22,-1.026 0.256,-1.721 1.465,-2.161l2.233,-0.915c2.454,-0.769 1.209,-4.432 -1.281,-3.553l-2.527,1.099c-2.417,0.952 -3.626,2.6 -3.552,4.871c-1.648,-0.44 -3.479,-0.696 -5.42,-0.696c-1.978,0 -3.772,0.256 -5.42,0.696c0.073,-2.271 -1.172,-3.919 -3.589,-4.871l-2.49,-1.099c-2.527,-0.879 -3.736,2.784 -1.319,3.553l2.234,0.915c1.245,0.44 1.685,1.135 1.465,2.161l-0.183,0.879c-3.626,2.05 -5.75,5.383 -5.75,9.192Zm19.556,49.987c6.116,-0.732 11.206,-3.589 14.758,-7.983l4.102,3.406c0.952,0.805 2.161,0.915 2.93,-0.074c0.805,-0.915 0.512,-2.124 -0.44,-2.929l-4.394,-3.662c2.124,-3.809 3.332,-8.423 3.405,-13.623l5.127,0c1.282,0 2.088,-0.769 2.088,-1.978c0,-1.172 -0.806,-1.941 -2.088,-1.941l-5.346,0c-0.476,-3.992 -1.721,-8.24 -3.516,-11.352l4.578,-3.809c0.915,-0.769 1.245,-2.014 0.476,-2.966c-0.806,-0.916 -2.014,-0.843 -2.967,-0.037l-4.467,3.699c-1.502,-1.392 -2.6,-1.428 -3.589,-0.989c-4.431,2.124 -9.778,3.223 -15.161,3.223c-5.384,-0 -10.767,-1.099 -15.198,-3.223c-0.952,-0.403 -2.014,-0.403 -3.589,0.989l-4.431,-3.699c-0.952,-0.806 -2.197,-0.879 -2.966,0.037c-0.769,0.952 -0.476,2.197 0.439,2.966l4.578,3.809c-1.795,3.112 -3.04,7.36 -3.516,11.352l-5.347,-0c-1.245,-0 -2.087,0.769 -2.087,1.941c0,1.209 0.842,1.978 2.124,1.978l5.09,-0c0.074,5.163 1.282,9.814 3.443,13.623l-4.431,3.662c-0.953,0.805 -1.209,2.014 -0.44,2.929c0.769,0.989 2.014,0.879 2.966,0.074l4.102,-3.406c3.552,4.394 8.606,7.251 14.758,7.983c1.905,0.22 2.82,-0.512 2.82,-1.941l0,-32.739c0,-0.952 0.733,-1.684 1.685,-1.684c0.915,-0 1.684,0.732 1.684,1.684l0,32.739c0,1.429 0.879,2.161 2.82,1.941Zm-15.381,-30.688c-2.014,-0 -3.662,-1.721 -3.662,-3.699c-0,-2.014 1.648,-3.662 3.662,-3.662c2.014,-0 3.662,1.648 3.662,3.662c-0,2.014 -1.648,3.699 -3.662,3.699Zm21.753,-0c-2.014,-0 -3.662,-1.685 -3.662,-3.699c-0,-2.014 1.648,-3.662 3.662,-3.662c2.014,-0 3.626,1.648 3.626,3.662c-0,1.978 -1.612,3.699 -3.626,3.699Zm-24.902,12.231c-2.381,-0 -4.285,-1.904 -4.285,-4.321c-0,-2.307 1.904,-4.211 4.285,-4.211c2.344,-0 4.284,1.904 4.284,4.211c-0,2.417 -1.94,4.321 -4.284,4.321Zm28.015,-0c-2.307,-0 -4.248,-1.904 -4.248,-4.321c-0,-2.307 1.941,-4.211 4.248,-4.211c2.38,-0 4.285,1.904 4.285,4.211c0,2.417 -1.905,4.321 -4.285,4.321Zm-24.426,10.364c-1.722,-0 -3.113,-1.392 -3.113,-3.149c-0,-1.722 1.391,-3.15 3.113,-3.15c1.757,-0 3.186,1.428 3.186,3.15c-0,1.757 -1.429,3.149 -3.186,3.149Zm20.837,-0c-1.758,-0 -3.149,-1.392 -3.149,-3.149c-0,-1.722 1.391,-3.15 3.149,-3.15c1.721,-0 3.15,1.428 3.15,3.15c-0,1.757 -1.429,3.149 -3.15,3.149Z" style="fill-rule:nonzero;"/></g></svg>