<?xml version="1.0" encoding="UTF-8" standalone="no"?><!DOCTYPE svg PUBLIC "-//W3C//DTD SVG 1.1//EN" "http://www.w3.org/Graphics/SVG/1.1/DTD/svg11.dtd"><svg width="100%" height="100%" viewBox="0 0 54 54" version="1.1" xmlns="http://www.w3.org/2000/svg" xmlns:xlink="http://www.w3.org/1999/xlink" xml:space="preserve" xmlns:serif="http://www.serif.com/" style="fill-rule:evenodd;clip-rule:evenodd;stroke-linecap:round;"><g id="Layer-1" serif:id="Layer 1"><path id="path7966" d="M48.191,2.643c-1.802,-1.225 -4.599,-0.585 -5.807,1.021l-6.001,9.975c-1.208,1.606 0.042,2.129 1.279,3.082c1.236,0.953 1.977,1.963 3.186,0.357l7.787,-8.468c1.209,-1.605 1.323,-4.766 -0.444,-5.967Z" style="fill:none;stroke:#000;stroke-width:2.88px;"/><path id="path7968" d="M36.429,24.941c0.275,4.892 -2.697,15.46 -9.785,21.056c-4.865,-0.463 -15.104,-5.804 -21.427,-14.293c10.938,-3.716 19.558,-15.306 24.669,-11.887l6.543,5.124Z" style="fill:none;stroke:#000;stroke-width:2.88px;stroke-linecap:butt;"/><path id="path7976" d="M32.817,24.559c-4.9,5.43 -5.075,13.424 -12.432,18.89" style="fill:none;stroke:#000;stroke-width:2.88px;"/><path id="path7978" d="M27.289,23.752c0,0 -10.977,13.401 -14.615,15.238" style="fill:none;stroke:#000;stroke-width:2.88px;"/><path id="rect7984" d="M29.254,12.138c0.44,-0.578 1.266,-0.69 1.845,-0.25l13.83,10.534c0.577,0.44 0.689,1.266 0.25,1.845l-1.63,2.139c-0.441,0.577 -1.267,0.689 -1.845,0.25l-13.83,-10.535c-0.577,-0.439 -0.689,-1.265 -0.25,-1.843l1.63,-2.14Z" style="fill:none;stroke:#000;stroke-width:3.95px;"/></g></svg>