<?xml version="1.0" encoding="UTF-8" standalone="no"?><!DOCTYPE svg PUBLIC "-//W3C//DTD SVG 1.1//EN" "http://www.w3.org/Graphics/SVG/1.1/DTD/svg11.dtd"><svg width="100%" height="100%" viewBox="0 0 65 72" version="1.1" xmlns="http://www.w3.org/2000/svg" xmlns:xlink="http://www.w3.org/1999/xlink" xml:space="preserve" xmlns:serif="http://www.serif.com/" style="fill-rule:evenodd;clip-rule:evenodd;stroke-linejoin:round;stroke-miterlimit:2;"><g id="Light-S"><path d="M32.232,63.942c0.805,-0 1.538,-0.037 2.343,-0.11l1.612,3.04c0.293,0.622 0.879,0.915 1.648,0.805c0.732,-0.11 1.172,-0.586 1.245,-1.318l0.513,-3.406c1.501,-0.403 2.966,-0.952 4.394,-1.575l2.49,2.234c0.55,0.513 1.172,0.586 1.868,0.22c0.623,-0.33 0.842,-0.952 0.696,-1.684l-0.696,-3.333c1.282,-0.879 2.49,-1.868 3.589,-3.003l3.113,1.318c0.695,0.293 1.318,0.147 1.867,-0.476c0.476,-0.549 0.513,-1.208 0.11,-1.831l-1.794,-2.893c0.879,-1.245 1.648,-2.636 2.307,-4.065l3.406,0.183c0.732,0.037 1.318,-0.329 1.538,-1.025c0.256,-0.696 0.036,-1.318 -0.55,-1.794l-2.673,-2.124c0.403,-1.465 0.696,-3.003 0.842,-4.615l3.223,-1.025c0.696,-0.256 1.099,-0.733 1.099,-1.465c-0,-0.769 -0.403,-1.245 -1.099,-1.501l-3.223,-1.026c-0.146,-1.611 -0.439,-3.149 -0.842,-4.614l2.673,-2.124c0.586,-0.44 0.769,-1.025 0.55,-1.758c-0.22,-0.696 -0.806,-1.062 -1.538,-1.025l-3.406,0.146c-0.696,-1.428 -1.428,-2.783 -2.307,-4.065l1.794,-2.893c0.403,-0.586 0.366,-1.245 -0.11,-1.758c-0.549,-0.659 -1.172,-0.805 -1.867,-0.512l-3.113,1.281c-1.099,-1.098 -2.307,-2.124 -3.589,-2.966l0.696,-3.332c0.146,-0.769 -0.073,-1.355 -0.696,-1.685c-0.696,-0.403 -1.318,-0.33 -1.868,0.22l-2.49,2.197c-1.428,-0.623 -2.893,-1.135 -4.394,-1.575l-0.513,-3.369c-0.073,-0.732 -0.549,-1.208 -1.245,-1.318c-0.769,-0.11 -1.355,0.183 -1.648,0.769l-1.612,3.076c-0.805,-0.073 -1.538,-0.11 -2.343,-0.11c-0.769,0 -1.502,0.037 -2.344,0.11l-1.575,-3.076c-0.329,-0.586 -0.879,-0.879 -1.684,-0.769c-0.696,0.11 -1.136,0.586 -1.245,1.318l-0.477,3.369c-1.501,0.44 -2.966,0.952 -4.394,1.575l-2.527,-2.197c-0.549,-0.55 -1.172,-0.586 -1.868,-0.22c-0.586,0.33 -0.805,0.916 -0.695,1.685l0.695,3.332c-1.245,0.842 -2.49,1.868 -3.588,2.966l-3.113,-1.281c-0.659,-0.293 -1.282,-0.147 -1.831,0.512c-0.476,0.513 -0.513,1.172 -0.147,1.722l1.831,2.929c-0.879,1.282 -1.648,2.637 -2.307,4.065l-3.442,-0.146c-0.733,-0.037 -1.282,0.329 -1.502,1.025c-0.256,0.733 -0.073,1.318 0.55,1.758l2.636,2.124c-0.366,1.465 -0.696,3.003 -0.769,4.614l-3.259,1.026c-0.732,0.219 -1.099,0.732 -1.099,1.501c0,0.732 0.367,1.245 1.099,1.465l3.259,1.025c0.073,1.612 0.366,3.15 0.769,4.615l-2.636,2.124c-0.586,0.439 -0.769,1.062 -0.55,1.794c0.22,0.696 0.769,1.062 1.502,1.025l3.442,-0.183c0.659,1.429 1.428,2.82 2.307,4.065l-1.794,2.893c-0.44,0.623 -0.366,1.282 0.11,1.831c0.549,0.623 1.172,0.769 1.831,0.476l3.113,-1.318c1.098,1.135 2.343,2.124 3.588,3.003l-0.695,3.333c-0.11,0.732 0.109,1.354 0.695,1.684c0.733,0.366 1.355,0.293 1.868,-0.22l2.49,-2.234c1.465,0.623 2.93,1.172 4.431,1.575l0.477,3.406c0.109,0.732 0.549,1.208 1.281,1.318c0.769,0.11 1.319,-0.183 1.648,-0.805l1.575,-3.04c0.806,0.073 1.575,0.11 2.344,0.11Zm7.031,-29.59c-1.172,-3.516 -3.809,-5.566 -7.068,-5.566c-0.549,-0 -1.135,0.11 -2.051,0.329l-8.606,-14.721c3.223,-1.612 6.848,-2.491 10.694,-2.491c12.854,0 22.961,9.815 23.767,22.449l-16.736,0Zm-30.798,1.648c-0,-8.276 3.918,-15.491 10.107,-19.812l8.643,14.758c-1.539,1.538 -2.308,3.296 -2.308,5.164c0,1.868 0.769,3.589 2.344,5.163l-8.826,14.466c-6.079,-4.358 -9.96,-11.536 -9.96,-19.739Zm20.105,0.11c-0,-2.051 1.721,-3.662 3.698,-3.662c2.014,-0 3.699,1.611 3.699,3.662c0,2.014 -1.685,3.662 -3.699,3.662c-1.977,0 -3.698,-1.648 -3.698,-3.662Zm3.662,23.987c-3.919,-0 -7.581,-0.916 -10.804,-2.564l8.79,-14.392c0.842,0.22 1.428,0.293 1.977,0.293c3.333,0 5.969,-2.124 7.105,-5.713l16.699,0c-0.843,12.598 -10.913,22.376 -23.767,22.376Z" style="fill-rule:nonzero;"/></g></svg>